<svg viewBox="0 0 28 28" fill="none" xmlns="http://www.w3.org/2000/svg">
<rect width="28" height="28" rx="14" fill="#2775CA"/>
<path d="M5.83257 11.1422C4.1408 15.634 6.47418 20.709 11.0242 22.3422C11.1992 22.459 11.3742 22.6922 11.3742 22.8672V23.684C11.3742 23.8006 11.3742 23.859 11.3158 23.9172C11.2576 24.1506 11.0242 24.2672 10.7908 24.1506C7.52418 23.1006 5.0158 20.5922 3.9658 17.3256C2.2158 11.784 5.24918 5.89222 10.7908 4.14222C10.8492 4.08398 10.9658 4.08398 11.0242 4.08398C11.2576 4.14222 11.3742 4.31722 11.3742 4.5506V5.36722C11.3742 5.65898 11.2576 5.83398 11.0242 5.9506C8.63256 6.8256 6.70757 8.69222 5.83257 11.1422Z" fill="white"/>
<path d="M16.6826 4.3756C16.7408 4.14222 16.9742 4.0256 17.2076 4.14222C20.4158 5.19222 22.9826 7.7006 24.0326 11.0256C25.7826 16.5672 22.7492 22.459 17.2076 24.209C17.1492 24.2672 17.0326 24.2672 16.9742 24.2672C16.7408 24.209 16.6242 24.034 16.6242 23.8006V22.984C16.6242 22.6922 16.7408 22.5172 16.9742 22.4006C19.3658 21.5256 21.2908 19.659 22.1658 17.209C23.8576 12.7172 21.5242 7.64222 16.9742 6.00898C16.7992 5.89222 16.6242 5.65898 16.6242 5.4256V4.60898C16.6242 4.49222 16.6242 4.43398 16.6826 4.3756Z" fill="white"/>
<path d="M14.1742 13.184C16.6242 13.4756 17.8492 14.1756 17.8492 16.2172C17.8492 17.7922 16.6826 19.0172 14.9326 19.309V20.709C14.8742 21.0006 14.6992 21.1756 14.4658 21.1756H13.5908C13.2992 21.1172 13.1242 20.9422 13.1242 20.709V19.309C11.1992 19.0172 10.2658 17.9672 10.0326 16.509V16.4506C10.0326 16.2172 10.2076 16.0422 10.4408 16.0422H11.4326C11.6076 16.0422 11.7826 16.159 11.8408 16.3922C12.0158 17.2672 12.5408 17.909 14.0576 17.909C15.1658 17.909 15.9826 17.2674 15.9826 16.334C15.9826 15.4006 15.4576 15.0506 13.8242 14.759C11.3742 14.4672 10.2076 13.709 10.2076 11.784C10.2076 10.3256 11.3158 9.15899 13.0658 8.92561V7.58399C13.1242 7.29223 13.2992 7.11723 13.5326 7.11723H14.4076C14.6992 7.17561 14.8742 7.35061 14.8742 7.58399V8.98399C16.2158 9.10061 17.2658 10.0922 17.4992 11.3756V11.434C17.4992 11.6672 17.3242 11.8422 17.0908 11.8422H16.1576C15.9826 11.8422 15.8076 11.7256 15.7492 11.5506C15.4576 10.6756 14.8742 10.3256 13.8242 10.3256C12.6576 10.3256 12.0742 10.8505 12.0742 11.6672C12.0742 12.484 12.4242 12.9506 14.1742 13.184Z" fill="white"/>
</svg>
